<svg width="651" height="325" viewBox="0 0 651 325" fill="none" xmlns="http://www.w3.org/2000/svg">
<line x1="60.5" y1="1" x2="60.5" y2="325" stroke="#F2EDED" stroke-width="5"/>
<line x1="58" y1="322.5" x2="651" y2="322.5" stroke="#F2EDED" stroke-width="5"/>
<circle cx="116" cy="275" r="7" fill="#D9D9D9"/>
<circle cx="383" cy="238" r="7" fill="#D9D9D9"/>
<circle cx="336" cy="100" r="7" fill="#D9D9D9"/>
<circle cx="225" cy="118" r="7" fill="#D9D9D9"/>
<circle cx="246" cy="261" r="7" fill="#D9D9D9"/>
<circle cx="390" cy="180" r="7" fill="#D9D9D9"/>
<circle cx="304" cy="208" r="7" fill="#D9D9D9"/>
<circle cx="317" cy="261" r="7" fill="#D9D9D9"/>
<circle cx="288" cy="125" r="7" fill="#D9D9D9"/>
<circle cx="336" cy="163" r="7" fill="#D9D9D9"/>
<circle cx="232" cy="194" r="7" fill="#D9D9D9"/>
<circle cx="183" cy="156" r="7" fill="#D9D9D9"/>
<circle cx="176" cy="238" r="7" fill="#D9D9D9"/>
<circle cx="130" cy="208" r="7" fill="#D9D9D9"/>
<line x1="1.86075" y1="322.775" x2="587.861" y2="22.7747" stroke="#2748F2" stroke-width="5"/>
<path d="M477 0L482.613 17.2746H500.776L486.082 27.9508L491.695 45.2254L477 34.5491L462.305 45.2254L467.918 27.9508L453.224 17.2746H471.387L477 0Z" fill="#F4EB99"/>
</svg>
